<?xml version="1.0" ?><svg xmlns="http://www.w3.org/2000/svg" xmlns:xlink="http://www.w3.org/1999/xlink" version="1.1" viewBox="0 0 32 32" style="enable-background:new 0 0 32 32;" xml:space="preserve"><style type="text/css">
	.st0{display:none;}
	.st1{display:inline;}
	.st2{fill:#CDF6F9;}
	.st3{fill:#FFFFFF;}
	.st4{fill:#1A83A8;}
</style><g id="Grid" class="st0"/><g id="Pencil"/><g id="Backpack"/><g id="Research"/><g id="Sunglasses"/><g id="Book"/><g id="Apple"/><g id="Note_Book"/><g id="Open_Book"/><g id="Homework"/><g id="Certificate"/><g id="Bell"/><g id="Projector"/><g id="Note_Book_1_"/><g id="Paper"/><g id="Science_Book"/><g id="Test"/><g id="Whiteboard"/><g id="Schedule"/><g id="School"/><g id="Ebook"/><g id="Globe"/><g id="Planner"/><g id="Presentation"/><g id="Global_Education"><circle class="st2" cx="15.406" cy="15.406" r="13.406"/><path class="st3" d="M14.33,19.81c-0.11,1.79-2.08,2.11-2.99,4.21c-0.36,0.82-0.65,2.13-0.11,4.13C5.87,26.39,2,21.35,2,15.41   c0-0.48,0.03-0.96,0.08-1.42c1.14,1.96,2.25,2.68,3.25,2.76c2.23,0.16,3.35-2.9,5.59-2.6c1.58,0.21,2.51,1.99,2.8,2.59   c0.03,0.07,0.06,0.13,0.07,0.16C13.79,16.9,14.42,18.34,14.33,19.81z"/><path class="st3" d="M27.22,9.07c-0.55,0.04-1.12,0-1.6-0.1c-1.46-0.29-1.44-0.94-2.57-1c-2.04-0.14-2.97,1.96-4.54,1.6   c-0.96-0.22-1.49-1.21-1.65-1.51c-0.79-1.49-0.51-3.83,0.43-5.93C21.6,2.74,25.25,5.39,27.22,9.07z"/><path class="st3" d="M29.83,22.83l-2,1.16l-3.89,2.26c-0.36,0.21-0.8,0.21-1.17,0l-3.88-2.26l-2-1.16c-0.23-0.13-0.23-0.46,0-0.6   l5.88-3.42c0.37-0.21,0.81-0.21,1.17,0l5.89,3.42C30.06,22.37,30.06,22.7,29.83,22.83z"/><path class="st3" d="M29.83,22.83l-2,1.16l-3.89,2.26c-0.36,0.21-0.8,0.21-1.17,0l-3.88-2.26l-2-1.16c-0.23-0.13-0.23-0.46,0-0.6   l5.88-3.42c0.37-0.21,0.81-0.21,1.17,0l5.89,3.42C30.06,22.37,30.06,22.7,29.83,22.83z"/><path class="st3" d="M27.83,23.99v3.23c0,0.4-0.22,0.78-0.57,0.98l-2.46,1.41c-0.89,0.52-1.99,0.52-2.89,0l-2.45-1.41   c-0.35-0.2-0.57-0.58-0.57-0.98v-3.23l3.88,2.26c0.37,0.21,0.81,0.21,1.17,0L27.83,23.99z"/><path class="st4" d="M15.572,27.905c-0.056,0.006-0.105,0.003-0.162,0.004c-1.185,0-2.327-0.176-3.413-0.485   c-0.244-1.173-0.202-2.2,0.165-3.041c0.348-0.798,0.88-1.282,1.443-1.795c0.723-0.658,1.543-1.403,1.622-2.729   c0.1-1.667-0.584-3.251-0.611-3.314l-0.084-0.186c-0.493-1.051-1.604-2.852-3.496-3.103c-1.526-0.2-2.644,0.735-3.538,1.49   c-0.735,0.621-1.362,1.17-2.098,1.103c-0.945-0.071-1.794-1.099-2.384-2.049C3.81,7.662,9.058,2.9,15.41,2.9   c0.208,0,0.41,0.021,0.615,0.031c-0.706,2.127-0.708,4.143,0.036,5.543c0.561,1.085,1.337,1.769,2.249,1.978   c0.191,0.043,0.376,0.063,0.553,0.063c0.892,0,1.611-0.488,2.21-0.894c0.637-0.433,1.193-0.806,1.921-0.757   c0.329,0.02,0.445,0.095,0.728,0.277c0.349,0.227,0.826,0.536,1.726,0.713c0.376,0.075,0.787,0.105,1.2,0.113   c0.8,1.648,1.262,3.49,1.262,5.442c0,0.622-0.05,1.281-0.149,1.959c-0.072,0.492,0.269,0.949,0.76,1.021   c0.506,0.068,0.95-0.269,1.021-0.76c0.111-0.764,0.169-1.511,0.169-2.221C29.71,7.52,23.295,1.1,15.41,1.1   C7.52,1.1,1.1,7.52,1.1,15.41c0,7.885,6.42,14.3,14.311,14.3c0.123,0,0.233-0.002,0.357-0.016c0.494-0.054,0.851-0.498,0.797-0.992   S16.071,27.844,15.572,27.905z M25.461,8.005c-0.337-0.102-0.539-0.23-0.761-0.373c-0.354-0.23-0.797-0.517-1.594-0.564   c-1.359-0.079-2.287,0.551-3.043,1.063c-0.617,0.418-0.986,0.643-1.354,0.566c-0.371-0.085-0.744-0.458-1.054-1.058   c-0.542-1.019-0.453-2.733,0.199-4.495C20.961,3.763,23.646,5.543,25.461,8.005z M2.959,16.559   c0.728,0.653,1.497,1.024,2.306,1.086c1.461,0.112,2.488-0.758,3.395-1.521c0.869-0.735,1.449-1.183,2.141-1.081   c1.113,0.147,1.892,1.631,2.104,2.084l0.063,0.137c0.005,0.013,0.538,1.27,0.465,2.489c-0.034,0.569-0.36,0.891-1.036,1.505   c-0.616,0.561-1.382,1.257-1.883,2.407c-0.393,0.902-0.524,1.924-0.434,3.036C6.172,24.851,3.371,21.051,2.959,16.559z"/><path class="st4" d="M30.28,21.455l-5.885-3.419c-0.638-0.371-1.434-0.371-2.073,0l-5.888,3.421   c-0.381,0.223-0.617,0.636-0.616,1.077c0.001,0.44,0.238,0.853,0.619,1.074l1.553,0.902v2.705c0,0.726,0.391,1.4,1.019,1.761   l2.456,1.416c0.584,0.337,1.239,0.506,1.894,0.506c0.655,0,1.311-0.169,1.895-0.506l2.455-1.415c0.629-0.361,1.02-1.036,1.02-1.762   v-2.705l1.552-0.901c0.382-0.222,0.62-0.634,0.621-1.075C30.901,22.092,30.664,21.679,30.28,21.455z M23.227,19.593   c0.083-0.048,0.184-0.046,0.265,0l5.059,2.938l-5.059,2.939c-0.083,0.048-0.184,0.046-0.265,0l-5.059-2.939L23.227,19.593z    M26.927,27.216c0,0.083-0.044,0.16-0.116,0.202l-2.456,1.416c-0.614,0.353-1.375,0.354-1.991,0l-2.457-1.417   c-0.071-0.041-0.115-0.118-0.115-0.201v-1.659l2.531,1.471c0.319,0.186,0.678,0.278,1.037,0.278c0.358,0,0.717-0.093,1.036-0.278   l2.531-1.47V27.216z"/></g><g id="Failed"/></svg>